<svg width="41" height="37" viewBox="0 0 41 37" fill="none" xmlns="http://www.w3.org/2000/svg">
<path fill-rule="evenodd" clip-rule="evenodd" d="M37.6073 36.8937H2.89542C1.52827 36.8937 0.334595 35.7764 0.334595 34.4034V9.50069C0.334595 8.12689 1.52827 7.00959 2.89542 7.00959H37.6073C38.9745 7.00959 40.179 8.12689 40.179 9.50069V34.4034C40.179 35.7764 38.9745 36.8937 37.6073 36.8937ZM38.5188 9.50069C38.5188 9.04248 38.063 8.66977 37.6073 8.66977H2.89542C2.4397 8.66977 1.99478 9.04248 1.99478 9.50069V26.9741L12.2713 18.0041C12.5984 17.7194 13.0914 17.7368 13.3977 18.0448L22.8085 27.4962L28.8466 22.9473C29.1802 22.6966 29.6443 22.7348 29.9348 23.032L38.5188 31.87V9.50069ZM38.5188 34.2465L29.2583 24.7129L23.2268 29.2568C22.8981 29.505 22.4374 29.4718 22.1469 29.1788L12.7735 19.7656L1.99478 29.1738V34.4034C1.99478 34.8608 2.4397 35.2327 2.89542 35.2327H37.6073C38.063 35.2327 38.5188 34.8608 38.5188 34.4034V34.2465ZM26.8635 16.1431C26.8635 14.7684 27.9774 13.6511 29.3463 13.6511C30.7109 13.6511 31.8224 14.7684 31.8224 16.1431C31.8224 17.5144 30.7109 18.6309 29.3463 18.6309C27.9774 18.6309 26.8635 17.5144 26.8635 16.1431ZM30.1697 16.1431C30.1697 15.684 29.8003 15.3113 29.3463 15.3113C28.8889 15.3113 28.5162 15.684 28.5162 16.1431C28.5162 16.5996 28.8889 16.9715 29.3463 16.9715C29.8003 16.9715 30.1697 16.5996 30.1697 16.1431ZM36.7814 5.35023H2.89542C2.4397 5.35023 2.06948 4.97835 2.06948 4.52014C2.06948 4.0611 2.4397 3.69005 2.89542 3.69005H36.7814C37.2379 3.69005 37.6073 4.0611 37.6073 4.52014C37.6073 4.97835 37.2379 5.35023 36.7814 5.35023ZM35.1278 2.02904H4.54897C4.09242 2.02904 3.72219 1.65799 3.72219 1.19895C3.72219 0.740741 4.09242 0.36969 4.54897 0.36969H35.1278C35.5844 0.36969 35.9546 0.740741 35.9546 1.19895C35.9546 1.65799 35.5844 2.02904 35.1278 2.02904Z" fill="#F2C94C"/>
<path fill-rule="evenodd" clip-rule="evenodd" d="M37.6073 36.8937H2.89542C1.52827 36.8937 0.334595 35.7764 0.334595 34.4034V9.50069C0.334595 8.12689 1.52827 7.00959 2.89542 7.00959H37.6073C38.9745 7.00959 40.179 8.12689 40.179 9.50069V34.4034C40.179 35.7764 38.9745 36.8937 37.6073 36.8937ZM38.5188 9.50069C38.5188 9.04248 38.063 8.66977 37.6073 8.66977H2.89542C2.4397 8.66977 1.99478 9.04248 1.99478 9.50069V26.9741L12.2713 18.0041C12.5984 17.7194 13.0914 17.7368 13.3977 18.0448L22.8085 27.4962L28.8466 22.9473C29.1802 22.6966 29.6443 22.7348 29.9348 23.032L38.5188 31.87V9.50069ZM38.5188 34.2465L29.2583 24.7129L23.2268 29.2568C22.8981 29.505 22.4374 29.4718 22.1469 29.1788L12.7735 19.7656L1.99478 29.1738V34.4034C1.99478 34.8608 2.4397 35.2327 2.89542 35.2327H37.6073C38.063 35.2327 38.5188 34.8608 38.5188 34.4034V34.2465ZM26.8635 16.1431C26.8635 14.7684 27.9774 13.6511 29.3463 13.6511C30.7109 13.6511 31.8224 14.7684 31.8224 16.1431C31.8224 17.5144 30.7109 18.6309 29.3463 18.6309C27.9774 18.6309 26.8635 17.5144 26.8635 16.1431ZM30.1697 16.1431C30.1697 15.684 29.8003 15.3113 29.3463 15.3113C28.8889 15.3113 28.5162 15.684 28.5162 16.1431C28.5162 16.5996 28.8889 16.9715 29.3463 16.9715C29.8003 16.9715 30.1697 16.5996 30.1697 16.1431ZM36.7814 5.35023H2.89542C2.4397 5.35023 2.06948 4.97835 2.06948 4.52014C2.06948 4.0611 2.4397 3.69005 2.89542 3.69005H36.7814C37.2379 3.69005 37.6073 4.0611 37.6073 4.52014C37.6073 4.97835 37.2379 5.35023 36.7814 5.35023ZM35.1278 2.02904H4.54897C4.09242 2.02904 3.72219 1.65799 3.72219 1.19895C3.72219 0.740741 4.09242 0.36969 4.54897 0.36969H35.1278C35.5844 0.36969 35.9546 0.740741 35.9546 1.19895C35.9546 1.65799 35.5844 2.02904 35.1278 2.02904Z" fill="url(#paint0_linear)"/>
<defs>
<linearGradient id="paint0_linear" x1="0.334595" y1="0.36969" x2="40.179" y2="37.2257" gradientUnits="userSpaceOnUse">
<stop stop-color="white" stop-opacity="0.5"/>
<stop offset="1" stop-color="white" stop-opacity="0.1"/>
</linearGradient>
</defs>
</svg>
