<svg width="41" height="38" viewBox="0 0 41 38" fill="none" xmlns="http://www.w3.org/2000/svg">
<path fill-rule="evenodd" clip-rule="evenodd" d="M17.0158 13.6195C17.3154 13.3206 17.7997 13.3206 18.0993 13.6195L22.9067 18.4268C23.3626 18.1579 23.8867 17.9932 24.4537 17.9932C26.144 17.9932 27.5187 19.3678 27.5187 21.0581C27.5187 22.7477 26.144 24.1231 24.4537 24.1231C22.7634 24.1231 21.3888 22.7477 21.3888 21.0581C21.3888 20.4911 21.5535 19.9662 21.8232 19.5103L17.0158 14.7029C16.7162 14.4041 16.7162 13.9191 17.0158 13.6195ZM24.4537 22.5898C25.2981 22.5898 25.9862 21.9025 25.9862 21.0581C25.9862 20.2129 25.2981 19.5256 24.4537 19.5256C24.1549 19.5256 23.8775 19.6153 23.6407 19.7639C23.6047 19.8743 23.5511 19.9792 23.463 20.0666C23.3756 20.1547 23.2699 20.2083 23.1595 20.2444C23.0109 20.4811 22.9212 20.7585 22.9212 21.0581C22.9212 21.9025 23.6086 22.5898 24.4537 22.5898ZM36.6967 10.6641C39.0881 13.4678 40.5447 17.0898 40.5447 21.0581C40.5447 29.9304 33.326 37.1491 24.4537 37.1491C19.3437 37.1491 14.6512 34.8021 11.5794 30.7119C11.3258 30.374 11.394 29.8936 11.7319 29.6392C12.0705 29.3856 12.5517 29.453 12.8054 29.7917C15.5853 33.4926 19.831 35.6159 24.4537 35.6159C32.4816 35.6159 39.0122 29.0852 39.0122 21.0581C39.0122 13.0302 32.4816 6.49883 24.4537 6.49883C19.5452 6.49883 14.9983 8.94849 12.2928 13.0509C12.0598 13.4042 11.5848 13.5015 11.2308 13.2693C10.8775 13.0364 10.7802 12.5598 11.0131 12.2065C13.8628 7.88801 18.559 5.23223 23.6875 4.9901V1.9014H20.6225C20.1988 1.9014 19.8563 1.55812 19.8563 1.13516C19.8563 0.712198 20.1988 0.36969 20.6225 0.36969H28.2849C28.7086 0.36969 29.0511 0.712198 29.0511 1.13516C29.0511 1.55812 28.7086 1.9014 28.2849 1.9014H25.22V5.00543C28.8833 5.17936 32.2257 6.58541 34.8508 8.81056L36.938 6.72333C37.2376 6.4245 37.7219 6.4245 38.0215 6.72333L38.7877 7.49034C39.0873 7.78917 39.0873 8.2742 38.7877 8.5738L36.6967 10.6641ZM9.12896 17.2262H1.46659C1.04286 17.2262 0.700348 16.8836 0.700348 16.4599C0.700348 16.037 1.04286 15.6944 1.46659 15.6944H9.12896C9.55269 15.6944 9.8952 16.037 9.8952 16.4599C9.8952 16.8836 9.55269 17.2262 9.12896 17.2262ZM4.53154 20.2911H13.7264C14.1501 20.2911 14.4926 20.6351 14.4926 21.0581C14.4926 21.4811 14.1501 21.8236 13.7264 21.8236H4.53154C4.10781 21.8236 3.7653 21.4811 3.7653 21.0581C3.7653 20.6351 4.10781 20.2911 4.53154 20.2911ZM6.83025 24.8893H11.4277C11.8514 24.8893 12.1939 25.2318 12.1939 25.6548C12.1939 26.0777 11.8514 26.4218 11.4277 26.4218H6.83025C6.40652 26.4218 6.06401 26.0777 6.06401 25.6548C6.06401 25.2318 6.40652 24.8893 6.83025 24.8893Z" fill="#F2C94C"/>
<path fill-rule="evenodd" clip-rule="evenodd" d="M17.0158 13.6195C17.3154 13.3206 17.7997 13.3206 18.0993 13.6195L22.9067 18.4268C23.3626 18.1579 23.8867 17.9932 24.4537 17.9932C26.144 17.9932 27.5187 19.3678 27.5187 21.0581C27.5187 22.7477 26.144 24.1231 24.4537 24.1231C22.7634 24.1231 21.3888 22.7477 21.3888 21.0581C21.3888 20.4911 21.5535 19.9662 21.8232 19.5103L17.0158 14.7029C16.7162 14.4041 16.7162 13.9191 17.0158 13.6195ZM24.4537 22.5898C25.2981 22.5898 25.9862 21.9025 25.9862 21.0581C25.9862 20.2129 25.2981 19.5256 24.4537 19.5256C24.1549 19.5256 23.8775 19.6153 23.6407 19.7639C23.6047 19.8743 23.5511 19.9792 23.463 20.0666C23.3756 20.1547 23.2699 20.2083 23.1595 20.2444C23.0109 20.4811 22.9212 20.7585 22.9212 21.0581C22.9212 21.9025 23.6086 22.5898 24.4537 22.5898ZM36.6967 10.6641C39.0881 13.4678 40.5447 17.0898 40.5447 21.0581C40.5447 29.9304 33.326 37.1491 24.4537 37.1491C19.3437 37.1491 14.6512 34.8021 11.5794 30.7119C11.3258 30.374 11.394 29.8936 11.7319 29.6392C12.0705 29.3856 12.5517 29.453 12.8054 29.7917C15.5853 33.4926 19.831 35.6159 24.4537 35.6159C32.4816 35.6159 39.0122 29.0852 39.0122 21.0581C39.0122 13.0302 32.4816 6.49883 24.4537 6.49883C19.5452 6.49883 14.9983 8.94849 12.2928 13.0509C12.0598 13.4042 11.5848 13.5015 11.2308 13.2693C10.8775 13.0364 10.7802 12.5598 11.0131 12.2065C13.8628 7.88801 18.559 5.23223 23.6875 4.9901V1.9014H20.6225C20.1988 1.9014 19.8563 1.55812 19.8563 1.13516C19.8563 0.712198 20.1988 0.36969 20.6225 0.36969H28.2849C28.7086 0.36969 29.0511 0.712198 29.0511 1.13516C29.0511 1.55812 28.7086 1.9014 28.2849 1.9014H25.22V5.00543C28.8833 5.17936 32.2257 6.58541 34.8508 8.81056L36.938 6.72333C37.2376 6.4245 37.7219 6.4245 38.0215 6.72333L38.7877 7.49034C39.0873 7.78917 39.0873 8.2742 38.7877 8.5738L36.6967 10.6641ZM9.12896 17.2262H1.46659C1.04286 17.2262 0.700348 16.8836 0.700348 16.4599C0.700348 16.037 1.04286 15.6944 1.46659 15.6944H9.12896C9.55269 15.6944 9.8952 16.037 9.8952 16.4599C9.8952 16.8836 9.55269 17.2262 9.12896 17.2262ZM4.53154 20.2911H13.7264C14.1501 20.2911 14.4926 20.6351 14.4926 21.0581C14.4926 21.4811 14.1501 21.8236 13.7264 21.8236H4.53154C4.10781 21.8236 3.7653 21.4811 3.7653 21.0581C3.7653 20.6351 4.10781 20.2911 4.53154 20.2911ZM6.83025 24.8893H11.4277C11.8514 24.8893 12.1939 25.2318 12.1939 25.6548C12.1939 26.0777 11.8514 26.4218 11.4277 26.4218H6.83025C6.40652 26.4218 6.06401 26.0777 6.06401 25.6548C6.06401 25.2318 6.40652 24.8893 6.83025 24.8893Z" fill="url(#paint0_linear)"/>
<defs>
<linearGradient id="paint0_linear" x1="0.700348" y1="0.36969" x2="40.8006" y2="37.2049" gradientUnits="userSpaceOnUse">
<stop stop-color="white" stop-opacity="0.5"/>
<stop offset="1" stop-color="white" stop-opacity="0.1"/>
</linearGradient>
</defs>
</svg>
