<svg width="41" height="37" viewBox="0 0 41 37" fill="none" xmlns="http://www.w3.org/2000/svg">
<path fill-rule="evenodd" clip-rule="evenodd" d="M40.0737 36.7987H1.74722C1.32753 36.7987 0.988281 36.4595 0.988281 36.0406V5.6822C0.988281 5.26327 1.32753 4.92403 1.74722 4.92403H14.08V1.12933C14.08 0.710391 14.4192 0.369629 14.8389 0.369629C15.2586 0.369629 15.5979 0.710391 15.5979 1.12933V4.92403H26.223V1.12933C26.223 0.710391 26.5623 0.369629 26.982 0.369629C27.4017 0.369629 27.7409 0.710391 27.7409 1.12933V4.92403H40.0737C40.4934 4.92403 40.8326 5.26327 40.8326 5.6822V36.0406C40.8326 36.4595 40.4934 36.7987 40.0737 36.7987ZM39.3148 6.4419H27.7409V8.71796C27.7409 9.13765 27.4017 9.47766 26.982 9.47766C26.5623 9.47766 26.223 9.13765 26.223 8.71796V6.4419H15.5979V8.71796C15.5979 9.13765 15.2586 9.47766 14.8389 9.47766C14.4192 9.47766 14.08 9.13765 14.08 8.71796V6.4419H2.50616V11.7545H39.3148V6.4419ZM39.3148 13.2716H2.50616V35.2816H39.3148V13.2716Z" fill="#F2C94C"/>
<path fill-rule="evenodd" clip-rule="evenodd" d="M40.0737 36.7987H1.74722C1.32753 36.7987 0.988281 36.4595 0.988281 36.0406V5.6822C0.988281 5.26327 1.32753 4.92403 1.74722 4.92403H14.08V1.12933C14.08 0.710391 14.4192 0.369629 14.8389 0.369629C15.2586 0.369629 15.5979 0.710391 15.5979 1.12933V4.92403H26.223V1.12933C26.223 0.710391 26.5623 0.369629 26.982 0.369629C27.4017 0.369629 27.7409 0.710391 27.7409 1.12933V4.92403H40.0737C40.4934 4.92403 40.8326 5.26327 40.8326 5.6822V36.0406C40.8326 36.4595 40.4934 36.7987 40.0737 36.7987ZM39.3148 6.4419H27.7409V8.71796C27.7409 9.13765 27.4017 9.47766 26.982 9.47766C26.5623 9.47766 26.223 9.13765 26.223 8.71796V6.4419H15.5979V8.71796C15.5979 9.13765 15.2586 9.47766 14.8389 9.47766C14.4192 9.47766 14.08 9.13765 14.08 8.71796V6.4419H2.50616V11.7545H39.3148V6.4419ZM39.3148 13.2716H2.50616V35.2816H39.3148V13.2716Z" fill="url(#paint0_linear)"/>
<path d="M16.6854 16.7058C16.4016 16.5889 16.076 16.6527 15.8582 16.8697L13.2467 19.482C12.9499 19.778 12.9499 20.2584 13.2467 20.5551C13.5427 20.8511 14.0231 20.8511 14.3191 20.5551L15.6358 19.2391V30.4654C15.6358 30.8843 15.9751 31.2243 16.3948 31.2243C16.8145 31.2243 17.1537 30.8843 17.1537 30.4654V17.4071C17.1537 17.0997 16.9693 16.8234 16.6854 16.7058Z" fill="#F2C94C"/>
<path d="M16.6854 16.7058C16.4016 16.5889 16.076 16.6527 15.8582 16.8697L13.2467 19.482C12.9499 19.778 12.9499 20.2584 13.2467 20.5551C13.5427 20.8511 14.0231 20.8511 14.3191 20.5551L15.6358 19.2391V30.4654C15.6358 30.8843 15.9751 31.2243 16.3948 31.2243C16.8145 31.2243 17.1537 30.8843 17.1537 30.4654V17.4071C17.1537 17.0997 16.9693 16.8234 16.6854 16.7058Z" fill="url(#paint1_linear)"/>
<path d="M27.0192 16.7787L20.9476 16.7863C20.5287 16.7863 20.1895 17.1263 20.1895 17.5444V22.0988C20.1895 22.5178 20.5287 22.857 20.9484 22.857H23.9842C25.9415 22.857 27.0199 24.104 27.0199 26.3679C27.0199 28.6455 26.0546 29.7064 23.9842 29.7064C21.872 29.7064 21.7073 27.9487 21.7073 27.4107C21.7073 26.9917 21.3681 26.6517 20.9484 26.6517C20.5287 26.6517 20.1895 26.9917 20.1895 27.4107C20.1895 29.3088 21.3628 31.2243 23.9842 31.2243C26.878 31.2243 28.5378 29.4537 28.5378 26.3679C28.5378 22.6604 26.1851 21.3391 23.9842 21.3391H21.7073V18.3026L27.0207 18.2965C27.4404 18.2958 27.7796 17.9558 27.7789 17.5361C27.7781 17.1172 27.4381 16.7787 27.0192 16.7787Z" fill="#F2C94C"/>
<path d="M27.0192 16.7787L20.9476 16.7863C20.5287 16.7863 20.1895 17.1263 20.1895 17.5444V22.0988C20.1895 22.5178 20.5287 22.857 20.9484 22.857H23.9842C25.9415 22.857 27.0199 24.104 27.0199 26.3679C27.0199 28.6455 26.0546 29.7064 23.9842 29.7064C21.872 29.7064 21.7073 27.9487 21.7073 27.4107C21.7073 26.9917 21.3681 26.6517 20.9484 26.6517C20.5287 26.6517 20.1895 26.9917 20.1895 27.4107C20.1895 29.3088 21.3628 31.2243 23.9842 31.2243C26.878 31.2243 28.5378 29.4537 28.5378 26.3679C28.5378 22.6604 26.1851 21.3391 23.9842 21.3391H21.7073V18.3026L27.0207 18.2965C27.4404 18.2958 27.7796 17.9558 27.7789 17.5361C27.7781 17.1172 27.4381 16.7787 27.0192 16.7787Z" fill="url(#paint2_linear)"/>
<defs>
<linearGradient id="paint0_linear" x1="4.97272" y1="0.369635" x2="43.1221" y2="28.6737" gradientUnits="userSpaceOnUse">
<stop stop-color="white" stop-opacity="0.5"/>
<stop offset="1" stop-color="white" stop-opacity="0.1"/>
</linearGradient>
<linearGradient id="paint1_linear" x1="4.97272" y1="0.369635" x2="43.1221" y2="28.6737" gradientUnits="userSpaceOnUse">
<stop stop-color="white" stop-opacity="0.5"/>
<stop offset="1" stop-color="white" stop-opacity="0.1"/>
</linearGradient>
<linearGradient id="paint2_linear" x1="4.97272" y1="0.369635" x2="43.1221" y2="28.6737" gradientUnits="userSpaceOnUse">
<stop stop-color="white" stop-opacity="0.5"/>
<stop offset="1" stop-color="white" stop-opacity="0.1"/>
</linearGradient>
</defs>
</svg>
